PathFileType	4	(X/Y/Z)	C:\Users\WrightLab\Desktop\Jo\P5V127.trc
DataRate	CameraRate	NumFrames	NumMarkers	Units	OrigDataRate	OrigDataStartFrame	OrigNumFrames
100.00	100.00	       25	19	mm	100.00	1	       636
Frame#	Time	Headset_Front			Headset_Back			Headset_Left			Headset_Right			Left_Shoulder			Right_Shoulder			Sternum			C7			Left Elbow			Right Elbow			Left Wrist			Right Wrist			Left ASIS			Right ASIS			S2			Left Knee			Right Knee			Left Ankle			Right Ankle			
		X1	Y1	Z1	X2	Y2	Z2	X3	Y3	Z3	X4	Y4	Z4	X5	Y5	Z5	X6	Y6	Z6	X7	Y7	Z7	X8	Y8	Z8	X9	Y9	Z9	X10	Y10	Z10	X11	Y11	Z11	X12	Y12	Z12	X13	Y13	Z13	X14	Y14	Z14	X15	Y15	Z15	X16	Y16	Z16	X17	Y17	Z17	X18	Y18	Z18	X19	Y19	Z19	

1	0.000	-133.10114	1594.18176	-952.92761										-46.88770	1319.20422	-1032.86926													-336.52335	1182.19568	-1147.83521	210.36356	1034.59924	-996.33020	-283.36880	988.92505	-993.08569	74.87387	921.25604	-1021.93604	-196.07253	951.24384	-1020.75659				130.43834	483.08777	-1064.51807	-232.46292	483.24966	-1043.26501	48.82327	70.43928	-1180.89844	-214.78850	79.66649	-1116.62964	
2	0.010	-133.44174	1594.33398	-952.96228										-46.88770	1319.20422	-1032.86926													-336.96078	1182.03760	-1148.02026	210.30287	1034.63672	-996.31989	-284.26913	988.78125	-993.16162	74.72074	920.95410	-1022.90857	-196.22046	951.14294	-1020.93524				131.01096	483.15329	-1065.95239	-232.36655	483.27118	-1043.55688	49.05747	71.30318	-1179.09351	-214.78929	79.66613	-1116.62964	
3	0.020	-133.70967	1594.31482	-952.58588										-47.69735	1319.23438	-1032.86914													-337.32004	1181.99878	-1147.97595	210.22737	1034.65173	-996.32458	-284.73203	988.80988	-993.32251	74.16595	921.04352	-1021.45721	-196.39153	951.03625	-1021.14215				130.80391	483.17545	-1066.09741	-232.47403	482.96573	-1044.27441	48.82327	70.43928	-1180.89844	-214.79773	79.66177	-1116.63025	
4	0.030	-134.04449	1594.44360	-952.62439										-47.69735	1319.23438	-1032.86914													-337.62036	1182.01147	-1147.73962	210.16458	1034.93091	-996.44122	-285.25507	988.66711	-992.93427	74.05402	920.81732	-1022.16730	-196.68356	951.36261	-1021.21722				130.78577	483.17593	-1066.10583	-232.53128	482.98785	-1044.28955	48.82327	70.43928	-1180.89844	-214.79811	79.66160	-1116.63025	
5	0.040	-134.44495	1594.59473	-952.67096										-47.69735	1319.23438	-1032.86914													-338.23801	1181.87805	-1147.21814	210.06143	1034.93140	-996.45599	-285.52097	988.40601	-992.85718	73.99400	920.68457	-1022.54755	-196.88422	951.21716	-1021.45917				130.56320	483.12659	-1066.32361	-234.47331	483.70132	-1044.07092	48.82327	70.43928	-1180.89844	-214.80486	79.65814	-1116.63074	
6	0.050	-134.75275	1594.89124	-952.60559										-47.58222	1318.34399	-1031.81055													-338.81186	1181.61230	-1146.64075	209.82526	1034.95386	-996.62701	-285.78012	988.43005	-991.86969	73.94195	920.62384	-1022.88007	-197.05247	951.09448	-1021.66205				130.06091	483.20871	-1067.02441	-232.65204	483.05603	-1044.32471	48.82327	70.43928	-1180.89844	-214.96400	79.56904	-1116.36609	
7	0.060	-135.01447	1595.12341	-952.52991										-47.58222	1318.34399	-1031.81055													-339.42056	1181.82556	-1146.29419	209.48915	1035.02246	-997.00629	-285.64175	988.50433	-991.54437	73.86346	920.47205	-1023.37836	-197.15236	950.55536	-1022.06195				130.03682	483.21024	-1067.03601	-232.70355	483.06763	-1044.33704	49.05747	71.30318	-1179.09351	-214.99728	79.57735	-1116.37231	
8	0.070	-135.23074	1594.95056	-951.60486										-48.10791	1318.23376	-1031.77783													-339.98843	1182.09119	-1146.15234	209.17496	1035.08789	-997.22607	-286.42953	988.63953	-991.54767	73.27223	920.79095	-1021.77966	-197.43282	951.11273	-1020.41876				129.97975	483.05576	-1067.21704	-232.80865	483.10355	-1044.36414	48.82327	70.43928	-1180.89844	-215.68651	80.05858	-1116.49390	
9	0.080	-135.49637	1594.93945	-951.25946										-48.56905	1318.45654	-1031.79663													-340.32697	1181.77002	-1145.63477	208.96545	1035.13269	-997.34668	-286.78711	988.68152	-990.55560	73.25499	920.75201	-1021.88873	-197.67596	951.44366	-1020.61591				129.65779	483.19324	-1067.37634	-232.87286	483.12521	-1044.38062	48.82327	70.43928	-1180.89844	-215.86755	79.78738	-1116.75098	
10	0.090	-135.82896	1594.94421	-950.97540										-49.32750	1318.94312	-1031.91174													-340.98624	1181.73279	-1145.21191	208.52626	1035.08154	-997.49396	-286.81464	988.56610	-990.13007	72.61831	921.45837	-1020.10339	-198.08415	950.44720	-1020.46753				129.39891	483.38904	-1067.45227	-233.37936	483.54547	-1044.40735	49.16283	70.12169	-1180.65088	-215.91821	79.80650	-1116.76160	
11	0.100	-136.03259	1594.84497	-950.22540										-50.18598	1319.36646	-1031.66699													-341.31473	1181.65735	-1144.70691	208.31856	1035.11560	-997.52594	-286.75793	988.40863	-989.98547	72.57101	921.37933	-1020.40375	-198.32745	950.55670	-1021.25244				129.16124	483.41376	-1067.63843	-232.91165	483.11435	-1044.38684	49.16283	70.12169	-1180.65088	-216.16873	79.55476	-1116.82910	
12	0.110	-136.22946	1595.07385	-949.79126										-50.30997	1319.05090	-1031.14526													-341.58502	1181.65039	-1144.19043	208.05597	1035.03613	-997.75122	-286.99155	988.07318	-989.71722	72.54600	921.30811	-1020.56104	-198.45940	950.64648	-1020.87231				129.20226	483.53339	-1068.17065	-233.38301	483.51492	-1044.40332	49.16283	70.12169	-1180.65088	-216.19298	79.56330	-1116.83398	
13	0.120	-136.49487	1595.23291	-949.81012										-50.30997	1319.05090	-1031.14526													-341.89609	1181.76050	-1144.14966	207.79628	1034.93640	-997.96796	-287.41119	987.75775	-989.78705	72.47654	921.17932	-1021.00146	-198.62541	950.53741	-1021.07263				129.20226	483.53339	-1068.17065	-233.36633	483.49481	-1044.39685	49.16283	70.12169	-1180.65088	-216.23624	79.57523	-1116.84241	
14	0.130	-136.51508	1595.25305	-948.45465										-51.28185	1319.29700	-1031.19812													-342.83160	1181.50964	-1143.16406	207.66492	1034.78442	-998.03107	-287.41608	987.73291	-989.67188	71.28927	921.63171	-1017.28253	-198.89777	949.85840	-1019.45343				128.24846	483.35690	-1068.56628	-233.11028	482.85825	-1044.03491	49.39704	70.98578	-1178.84595	-216.31822	79.60569	-1116.85938	
15	0.140	-136.76195	1595.40161	-948.47217										-51.71516	1318.83008	-1030.91443													-343.34744	1181.35327	-1142.55688	207.18373	1034.71008	-998.11731	-288.10229	987.51526	-988.66510	71.24553	921.49945	-1017.55688	-198.98824	949.79956	-1019.56256				127.70898	483.22009	-1068.77832	-233.20485	482.70544	-1043.82483	49.39704	70.98578	-1178.84595	-216.53304	79.25461	-1116.66187	
16	0.150	-136.92404	1595.35156	-947.58423										-51.71516	1318.83008	-1030.91443													-343.66641	1181.35718	-1141.73633	206.65231	1034.72705	-999.46631	-288.53220	987.59924	-988.76202	71.19873	921.38031	-1017.85138	-199.16046	950.16309	-1019.42828				127.68963	483.23221	-1068.79114	-233.12143	482.77579	-1043.40381	48.92855	69.25704	-1182.45679	-216.77083	79.12890	-1116.47571	
17	0.160	-137.15866	1595.61670	-947.15033										-51.67488	1318.80542	-1030.10767													-343.95029	1181.50256	-1141.00549	206.30359	1034.66370	-999.04474	-289.12094	987.12250	-988.04858	71.11575	921.18439	-1018.37445	-199.29663	950.15625	-1019.71381				127.64095	483.46024	-1069.27380	-233.11646	482.82349	-1042.57178	49.16283	70.12169	-1180.65088	-216.98886	79.02077	-1116.22375	
18	0.170	-137.46005	1595.76953	-946.92682										-52.58191	1319.06067	-1029.82617													-344.31525	1181.46033	-1140.62048	206.04124	1034.60901	-999.13892	-289.43933	987.14386	-987.91711	70.30437	922.39502	-1016.99280	-199.35875	950.03015	-1020.01526				127.33540	483.70023	-1069.34094	-232.97897	482.92569	-1041.92810	49.16283	70.12169	-1180.65088	-217.01750	79.04398	-1116.23169	
19	0.180	-137.63332	1595.81885	-946.35999										-53.29936	1319.04285	-1029.53162													-345.49490	1181.08704	-1139.98926	205.73436	1034.66675	-999.94537	-290.17349	986.56183	-986.98694	72.02092	919.86206	-1017.08167	-199.70560	950.82703	-1017.08728				126.57075	483.78384	-1069.80811	-232.30225	482.71375	-1041.12976	49.16283	70.12169	-1180.65088	-217.10007	79.05636	-1116.24597	
20	0.190	-137.72769	1595.73315	-945.39978										-53.38434	1318.83728	-1029.25366													-345.73892	1181.62793	-1139.03186	205.01674	1034.61060	-999.78601	-290.14896	986.59784	-985.65186	71.90278	919.80145	-1017.07214	-200.06929	950.38599	-1017.36981				125.94648	483.86835	-1069.64136	-232.13071	482.60110	-1041.07703	49.16283	70.12169	-1180.65088	-217.15135	79.08086	-1116.25745	
21	0.200	-137.83835	1595.81323	-944.47607										-53.97050	1318.50854	-1028.47754													-346.24078	1181.38525	-1137.58215	204.63217	1034.59668	-1000.37781	-290.35883	986.65912	-985.08032	71.58815	919.99286	-1017.05414	-200.93660	949.98254	-1017.45721				125.79315	484.35883	-1069.80542	-232.38031	482.26700	-1040.14075	49.16283	70.12169	-1180.65088	-217.26860	78.84305	-1116.74487	
22	0.210	-138.02477	1596.37451	-944.42389										-54.03304	1318.35205	-1028.23206													-346.91934	1181.63379	-1136.91211	204.39508	1034.55505	-1000.41321	-290.64590	986.70245	-984.99213	71.44744	919.92609	-1017.04565	-201.55618	950.24835	-1016.20361				125.47965	484.42374	-1069.84351	-232.57487	482.63107	-1037.92505	49.16283	70.12169	-1180.65088	-217.34625	78.56245	-1117.18835	
23	0.220	-138.20650	1596.45581	-943.88586										-54.15345	1318.11035	-1028.21667													-347.39154	1181.69885	-1136.24243	204.02982	1034.61011	-1000.50513	-290.84015	986.63245	-984.44476	71.29276	919.88507	-1017.05359	-201.66193	950.36053	-1015.45337				124.82374	484.34399	-1070.28540	-232.52686	482.52197	-1037.62695	48.82327	70.43928	-1180.89844	-217.41850	78.57661	-1117.20129	
24	0.230	-138.29283	1596.54492	-942.96515										-54.00171	1318.31543	-1027.46973													-348.31577	1182.29346	-1135.00122	203.71992	1034.54199	-1000.05682	-290.82886	986.39832	-983.27148	71.10974	919.82733	-1017.05804	-202.05112	949.94958	-1014.42615				124.29622	484.11002	-1070.79529	-232.54747	482.18027	-1037.85254	49.05747	71.30318	-1179.09351	-217.46286	78.60178	-1117.21191	
25	0.240	-138.39905	1596.64526	-942.04248										-54.38578	1318.41064	-1026.86133													-349.08072	1182.16040	-1133.87708	203.48273	1034.44763	-1000.55756	-291.33386	986.38654	-982.33948	68.25328	921.04712	-1021.28900	-202.85382	949.72577	-1012.86627				123.89855	483.97021	-1071.09814	-232.46770	482.35950	-1036.87573	49.05747	71.30318	-1179.09351	-217.52466	78.62761	-1117.22522	
